<svg xmlns="http://www.w3.org/2000/svg" viewBox="0 0 101.212 56.055"><svg width="46.329" height="55.43" viewBox="0 0 46.329 55.43" x="0"><g id="svgGroup" stroke-linecap="round" fill-rule="evenodd" font-size="9pt" stroke="#00000000" stroke-width="0.25mm" fill="#000" style="stroke:#00000000;stroke-width:0.25mm;fill:#000"><path d="M 0.078 1.602 L 0.039 1.055 A 0.833 0.833 0 0 1 0.038 1.011 Q 0.038 0.342 1.153 0.172 A 4.121 4.121 0 0 1 1.27 0.156 Q 2.539 0 10.313 0 Q 22.773 0 24.883 0.078 Q 33.403 0.39 37.962 2.605 A 13.474 13.474 0 0 1 39.063 3.203 A 12.121 12.121 0 0 1 44.638 11.181 A 20.314 20.314 0 0 1 45.117 15.742 Q 45.117 17.911 43.872 20.323 A 15.207 15.207 0 0 1 43.711 20.625 A 18.42 18.42 0 0 1 42.285 22.805 A 23.485 23.485 0 0 1 41.055 24.297 A 98.215 98.215 0 0 1 40.738 24.647 Q 39.609 25.885 39.609 25.781 A 0.266 0.266 0 0 0 39.665 25.927 Q 39.841 26.183 40.572 26.61 A 11.212 11.212 0 0 0 40.625 26.641 Q 43.359 28.203 44.922 31.602 Q 46.328 34.648 46.328 38.086 Q 46.328 45.273 41.836 50 A 14.403 14.403 0 0 1 36.785 53.361 Q 32.296 55.224 25.418 55.409 A 57.535 57.535 0 0 1 23.867 55.43 Q 23.12 55.43 21.868 55.407 A 273.902 273.902 0 0 1 21.055 55.391 L 18.281 55.391 Q 3.867 55.391 1.133 54.805 Q 0.06 54.583 0.003 53.695 A 1.587 1.587 0 0 1 0 53.594 Q 0 49.433 0.484 41.013 A 592.976 592.976 0 0 1 0.488 40.938 A 488.362 488.362 0 0 0 0.702 36.965 Q 0.891 33.143 0.95 30.454 A 101.686 101.686 0 0 0 0.977 28.242 A 152.599 152.599 0 0 0 0.951 25.68 Q 0.867 20.781 0.508 11.211 Q 0.418 8.759 0.214 4.429 A 1757.498 1757.498 0 0 0 0.078 1.602 Z M 30.703 37.93 A 6.461 6.461 0 0 0 30.452 36.064 Q 29.847 34.056 27.79 33.171 A 6.274 6.274 0 0 0 27.773 33.164 Q 26.241 32.525 23.141 32.409 A 38.973 38.973 0 0 0 21.68 32.383 Q 16.641 32.383 16.211 32.754 Q 15.843 33.072 15.79 36.363 A 73.977 73.977 0 0 0 15.781 37.539 Q 15.781 42.148 16.289 42.637 Q 16.724 43.055 20.549 43.115 A 87.797 87.797 0 0 0 21.914 43.125 A 42.519 42.519 0 0 0 23.867 43.084 Q 26.563 42.959 27.852 42.461 A 4.555 4.555 0 0 0 29.575 41.308 Q 30.703 40.067 30.703 37.93 Z M 29.531 16.094 A 5.073 5.073 0 0 0 29.205 14.221 Q 28.485 12.394 26.172 11.641 A 9.076 9.076 0 0 0 25.005 11.371 Q 23.748 11.156 21.887 11.087 A 51.263 51.263 0 0 0 20 11.055 A 44.553 44.553 0 0 0 18.785 11.07 Q 16.388 11.136 15.904 11.485 A 0.245 0.245 0 0 0 15.781 11.68 A 11.545 11.545 0 0 1 15.773 12.098 Q 15.747 12.794 15.646 13.912 A 61.549 61.549 0 0 1 15.645 13.926 A 55.633 55.633 0 0 0 15.585 14.63 Q 15.508 15.609 15.508 16.165 A 7.769 7.769 0 0 0 15.508 16.172 A 35.468 35.468 0 0 0 15.531 17.513 Q 15.627 20.037 16.121 20.505 A 0.463 0.463 0 0 0 16.172 20.547 Q 16.538 20.846 19.875 20.891 A 94.648 94.648 0 0 0 21.133 20.898 A 21.937 21.937 0 0 0 23.987 20.73 Q 29.531 19.998 29.531 16.094 Z" vector-effect="non-scaling-stroke"/></g></svg><svg width="54.883" height="56.055" viewBox="0 0 54.883 56.055" x="46.329"><g id="svgGroup" stroke-linecap="round" fill-rule="evenodd" font-size="9pt" stroke="#00000000" stroke-width="0.25mm" fill="#1a73e9" style="stroke:#00000000;stroke-width:0.25mm;fill:#1a73e9"><path d="M 54.483 55.489 A 0.84 0.84 0 0 0 54.883 54.766 A 1.793 1.793 0 0 0 54.811 54.403 Q 54.169 51.976 47.765 35.215 A 2941.15 2941.15 0 0 0 45.586 29.531 A 3533.748 3533.748 0 0 0 43.043 22.95 Q 36.049 4.91 34.414 1.406 A 5.245 5.245 0 0 0 34.245 1.084 Q 33.945 0.562 33.62 0.322 A 0.953 0.953 0 0 0 33.047 0.117 Q 32.031 0.117 29.98 0.254 A 100.831 100.831 0 0 1 29.074 0.31 Q 28.137 0.364 27.465 0.382 A 22.687 22.687 0 0 1 26.875 0.391 A 7.296 7.296 0 0 1 26.87 0.391 Q 25.776 0.39 23.574 0.195 A 104.755 104.755 0 0 0 23.495 0.188 Q 21.348 0 20.313 0 Q 19.688 0 19.219 1.484 A 22.789 22.789 0 0 1 19.099 1.848 Q 17.86 5.519 8.828 29.961 Q 1.104 50.913 0.138 54.31 A 3.213 3.213 0 0 0 0 54.922 Q 0 56.055 5.977 56.055 A 304.846 304.846 0 0 0 8.053 56.048 Q 13.748 56.009 14.883 55.742 Q 15.74 55.52 16.39 53.338 A 17.834 17.834 0 0 0 16.68 52.227 A 41.598 41.598 0 0 1 16.983 50.992 Q 17.625 48.554 18.164 48.047 Q 18.54 47.739 23.671 47.701 A 209.198 209.198 0 0 1 25.234 47.695 Q 33.848 47.695 35.403 47.905 A 1.31 1.31 0 0 1 35.703 47.969 A 0.524 0.524 0 0 1 35.837 48.077 Q 36.419 48.697 37.315 52.132 A 81.755 81.755 0 0 1 37.773 53.984 A 3.232 3.232 0 0 0 37.925 54.463 Q 38.123 54.949 38.464 55.259 A 2.051 2.051 0 0 0 39.453 55.742 A 8.064 8.064 0 0 0 40.018 55.828 Q 41.406 55.996 44.387 56.04 A 156.243 156.243 0 0 0 46.641 56.055 Q 51.592 56.055 53.294 55.848 A 4.701 4.701 0 0 0 53.906 55.742 Q 54.258 55.644 54.483 55.489 Z M 27.188 19.18 A 19.156 19.156 0 0 0 26.774 20.124 Q 25.94 22.155 24.414 26.641 A 187.829 187.829 0 0 0 23.697 28.749 Q 22.305 32.932 22.305 33.789 A 0.459 0.459 0 0 0 22.539 34.171 Q 23.046 34.517 24.648 34.57 A 25.638 25.638 0 0 0 25.352 34.604 Q 26.426 34.644 28.204 34.648 A 184.031 184.031 0 0 0 28.633 34.648 Q 30.597 34.648 31.224 34.285 A 0.592 0.592 0 0 0 31.484 34.023 Q 31.563 33.828 31.563 33.477 Q 31.563 32.205 29.813 26.521 A 191.612 191.612 0 0 0 29.766 26.367 A 171.97 171.97 0 0 0 29.041 24.101 Q 28.059 21.105 27.452 19.735 A 9.398 9.398 0 0 0 27.187 19.18 Z" vector-effect="non-scaling-stroke"/></g></svg></svg>